<svg width="134" height="142" viewBox="0 0 134 142" fill="none" xmlns="http://www.w3.org/2000/svg">
<path d="M133.467 106.116C133.188 103.494 131.921 101.076 129.925 99.3529C127.929 97.6297 125.352 96.73 122.717 96.8362L118.267 88.1563C118.747 87.4728 119.088 86.7013 119.27 85.8861C119.452 85.071 119.471 84.2279 119.327 83.4052C119.183 82.5825 118.879 81.7961 118.431 81.0911C117.983 80.3861 117.401 79.7763 116.717 79.2963C116.034 78.8163 115.262 78.4756 114.447 78.2937C113.632 78.1119 112.789 78.0923 111.966 78.2362C111.143 78.3802 110.357 78.6848 109.652 79.1326C108.947 79.5804 108.337 80.1627 107.857 80.8462H94.3172V73.3062C97.3194 73.1034 100.133 71.7679 102.188 69.5699C104.243 67.3718 105.386 64.4753 105.387 61.4662V36.7463C105.387 33.5955 104.136 30.5737 101.908 28.3458C99.6797 26.1179 96.6579 24.8662 93.5071 24.8662H79.5872L82.0071 12.6263C83.471 12.3721 84.7998 11.6134 85.7627 10.4818C86.7257 9.35021 87.262 7.91718 87.2787 6.43143C87.2954 4.94569 86.7914 3.50098 85.8541 2.34806C84.9169 1.19513 83.6055 0.406791 82.1476 0.119786C80.6898 -0.167219 79.1774 0.0652699 77.8731 0.776891C76.5687 1.48851 75.5547 2.63434 75.007 4.01554C74.4593 5.39674 74.4125 6.9261 74.8747 8.33823C75.3368 9.75036 76.2788 10.9561 77.5371 11.7463L74.9472 24.8662H52.0572C50.4962 24.8662 48.9506 25.1739 47.5086 25.7715C46.0666 26.3692 44.7565 27.2451 43.6532 28.3493C42.5499 29.4536 41.6751 30.7644 41.0786 32.2069C40.4822 33.6494 40.1758 35.1953 40.1772 36.7563V61.4762C40.1777 64.4837 41.32 67.3789 43.373 69.5767C45.426 71.7745 48.2367 73.111 51.2372 73.3162V82.3162H33.3871C33.1537 80.8171 32.393 79.4505 31.2417 78.4624C30.0905 77.4743 28.6244 76.9297 27.1072 76.9263C26.4281 76.9207 25.7527 77.0253 25.1072 77.2362L14.9271 61.0762C16.9323 60.0696 18.5565 58.4394 19.5556 56.4305C20.5546 54.4215 20.8746 52.1425 20.4672 49.9362C20.4267 49.63 20.3243 49.3352 20.1664 49.0697C20.0085 48.8043 19.7983 48.5736 19.5485 48.3919C19.2987 48.2101 19.0146 48.081 18.7134 48.0124C18.4122 47.9437 18.1003 47.9371 17.7964 47.9927C17.4926 48.0483 17.2032 48.165 16.9458 48.3358C16.6885 48.5067 16.4685 48.7282 16.2993 48.9866C16.1301 49.2451 16.0152 49.5352 15.9616 49.8394C15.9079 50.1436 15.9166 50.4555 15.9872 50.7563C16.2644 52.2758 15.9273 53.8432 15.0498 55.1144C14.1724 56.3856 12.8263 57.2567 11.3072 57.5363C9.78648 57.8105 8.21906 57.4709 6.94827 56.5918C5.67748 55.7128 4.80687 54.3659 4.52713 52.8462C4.41839 52.2508 4.07765 51.7229 3.57974 51.3788C3.08183 51.0347 2.46751 50.9025 1.8721 51.0113C1.27669 51.12 0.74894 51.4607 0.404811 51.9587C0.0606819 52.4566 -0.0716034 53.0709 0.0371354 53.6663C0.477703 56.0527 1.73817 58.2101 3.60061 59.7658C5.46306 61.3215 7.81052 62.1776 10.2372 62.1862L21.5371 80.1263C20.9783 81.0891 20.685 82.183 20.6872 83.2963C20.683 84.6596 21.117 85.9881 21.9252 87.0861C22.7334 88.1841 23.873 88.9934 25.1761 89.3944C26.4791 89.7955 27.8764 89.7673 29.1621 89.3139C30.4479 88.8605 31.554 88.006 32.3172 86.8763H51.1872V96.1363C51.1903 98.5577 51.9332 100.92 53.3166 102.908C54.6999 104.895 56.6575 106.412 58.9272 107.256V121.256C58.9288 123.434 59.7459 125.531 61.2174 127.136C62.6889 128.741 64.7081 129.736 66.8771 129.926V136.206C66.8771 136.949 67.0236 137.686 67.308 138.372C67.5924 139.059 68.0094 139.683 68.5349 140.209C69.0605 140.734 69.6844 141.151 70.3711 141.435C71.0578 141.72 71.7939 141.866 72.5371 141.866C73.2804 141.866 74.0164 141.72 74.7031 141.435C75.3899 141.151 76.0137 140.734 76.5393 140.209C77.0649 139.683 77.4818 139.059 77.7663 138.372C78.0507 137.686 78.1972 136.949 78.1972 136.206V129.926C80.3751 129.748 82.4066 128.758 83.8885 127.152C85.3703 125.546 86.1944 123.441 86.1972 121.256V107.356C88.5612 106.569 90.6175 105.058 92.0749 103.037C93.5322 101.016 94.3167 98.5878 94.3172 96.0962V85.3362H106.807C107.039 86.8362 107.799 88.204 108.951 89.1924C110.102 90.1809 111.569 90.7249 113.087 90.7262C113.528 90.7258 113.967 90.6788 114.397 90.5862L118.187 97.9762C116.981 98.6347 115.915 99.5211 115.047 100.586C114.185 101.645 113.541 102.865 113.153 104.175C112.765 105.485 112.641 106.858 112.787 108.216C112.853 108.769 113.12 109.277 113.537 109.646C113.953 110.015 114.491 110.218 115.047 110.216H115.297C115.893 110.148 116.438 109.847 116.813 109.379C117.188 108.91 117.362 108.313 117.297 107.716C117.189 106.941 117.238 106.152 117.441 105.396C117.644 104.641 117.998 103.933 118.48 103.317C118.962 102.701 119.564 102.188 120.249 101.809C120.933 101.43 121.687 101.193 122.466 101.112C123.244 101.03 124.031 101.107 124.779 101.336C125.527 101.565 126.222 101.943 126.821 102.446C127.42 102.95 127.912 103.569 128.267 104.266C128.622 104.964 128.833 105.726 128.887 106.506C128.906 106.814 128.987 107.114 129.125 107.39C129.263 107.665 129.455 107.91 129.69 108.109C129.925 108.308 130.198 108.457 130.493 108.548C130.787 108.638 131.097 108.668 131.403 108.636C131.71 108.603 132.006 108.509 132.275 108.359C132.544 108.209 132.78 108.005 132.968 107.762C133.156 107.518 133.293 107.238 133.37 106.94C133.447 106.642 133.463 106.331 133.417 106.026L133.467 106.116ZM27.1072 85.7863C26.6207 85.7863 26.1451 85.6419 25.7405 85.3716C25.336 85.1013 25.0206 84.7171 24.8344 84.2676C24.6482 83.8181 24.5996 83.3235 24.6945 82.8464C24.7894 82.3692 25.0237 81.9307 25.3677 81.5867C25.7117 81.2427 26.15 81.0084 26.6272 80.9135C27.1044 80.8186 27.5991 80.8673 28.0486 81.0535C28.4981 81.2397 28.8823 81.555 29.1526 81.9595C29.4229 82.3641 29.5672 82.8397 29.5672 83.3262C29.5645 83.9778 29.3045 84.602 28.8438 85.0628C28.383 85.5236 27.7588 85.7837 27.1072 85.7863ZM59.6271 52.2963C59.6271 52.9859 59.3532 53.6471 58.8656 54.1347C58.378 54.6223 57.7167 54.8963 57.0271 54.8963C56.3376 54.8963 55.6762 54.6223 55.1886 54.1347C54.701 53.6471 54.4272 52.9859 54.4272 52.2963V40.7262C54.4272 40.0367 54.701 39.3754 55.1886 38.8878C55.6762 38.4002 56.3376 38.1263 57.0271 38.1263C57.7167 38.1263 58.378 38.4002 58.8656 38.8878C59.3532 39.3754 59.6271 40.0367 59.6271 40.7262V52.2963ZM80.9271 3.88627C81.4157 3.88627 81.8933 4.03112 82.2995 4.30253C82.7057 4.57393 83.0222 4.95971 83.2091 5.41105C83.3961 5.86238 83.4449 6.35898 83.3496 6.83811C83.2543 7.31724 83.0192 7.75738 82.6737 8.10282C82.3283 8.44825 81.8882 8.68348 81.4091 8.77878C80.9299 8.87409 80.4333 8.82517 79.982 8.63822C79.5306 8.45127 79.1448 8.13468 78.8734 7.72849C78.602 7.3223 78.4572 6.84476 78.4572 6.35624C78.4532 6.02983 78.5142 5.70589 78.6366 5.40329C78.7591 5.1007 78.9405 4.82554 79.1704 4.59379C79.4003 4.36203 79.6741 4.17835 79.9757 4.05344C80.2773 3.92854 80.6007 3.86489 80.9271 3.86625V3.88627ZM72.1371 40.7262C72.1371 40.0367 72.4111 39.3754 72.8987 38.8878C73.3863 38.4002 74.0476 38.1263 74.7372 38.1263C75.4268 38.1263 76.088 38.4002 76.5756 38.8878C77.0632 39.3754 77.3372 40.0367 77.3372 40.7262V52.2963C77.3372 52.9859 77.0632 53.6471 76.5756 54.1347C76.088 54.6223 75.4268 54.8963 74.7372 54.8963C74.0476 54.8963 73.3863 54.6223 72.8987 54.1347C72.4111 53.6471 72.1371 52.9859 72.1371 52.2963V40.7262ZM81.6471 121.326C81.6448 122.296 81.3038 123.234 80.683 123.979C80.0622 124.724 79.2005 125.229 78.2471 125.406V119.246C78.2471 117.745 77.6508 116.306 76.5894 115.244C75.5279 114.183 74.0883 113.586 72.5872 113.586C71.0861 113.586 69.6464 114.183 68.585 115.244C67.5235 116.306 66.9271 117.745 66.9271 119.246V125.406C65.9747 125.229 65.1143 124.724 64.4951 123.979C63.876 123.233 63.5371 122.295 63.5371 121.326V108.046H81.6471V121.326ZM113.117 86.8863C112.631 86.8863 112.155 86.742 111.75 86.4717C111.346 86.2014 111.031 85.8171 110.844 85.3676C110.658 84.9181 110.609 84.4235 110.704 83.9463C110.799 83.4691 111.034 83.0308 111.378 82.6868C111.722 82.3428 112.16 82.1084 112.637 82.0135C113.114 81.9185 113.609 81.9673 114.058 82.1535C114.508 82.3397 114.892 82.6549 115.163 83.0595C115.433 83.464 115.577 83.9398 115.577 84.4263C115.572 85.0753 115.31 85.6958 114.85 86.1529C114.389 86.6099 113.766 86.8663 113.117 86.8662V86.8863ZM4.9772 39.4262C4.88003 39.3481 4.80162 39.2492 4.74795 39.1366C4.69428 39.0241 4.66668 38.9009 4.66714 38.7762V26.0562C4.66714 25.738 4.79354 25.4328 5.01858 25.2077C5.24362 24.9827 5.54895 24.8562 5.86721 24.8562H11.2771C11.448 24.8559 11.6169 24.8924 11.7724 24.9632C11.9278 25.0339 12.0663 25.1374 12.1782 25.2664C12.2902 25.3954 12.373 25.547 12.4212 25.7109C12.4693 25.8748 12.4816 26.0471 12.4572 26.2162L11.6571 32.2162C11.6478 32.2961 11.6564 32.3771 11.6824 32.4532C11.7084 32.5293 11.751 32.5987 11.8072 32.6562C11.8644 32.7158 11.9353 32.7606 12.0137 32.7867C12.0921 32.8128 12.1756 32.8196 12.2571 32.8062L18.0572 31.9762C18.2016 31.9583 18.3481 31.9801 18.4811 32.0393C18.6141 32.0985 18.7285 32.1928 18.8118 32.3121C18.8951 32.4314 18.9442 32.5712 18.954 32.7165C18.9638 32.8617 18.9338 33.0069 18.8672 33.1363L9.64712 50.2262C9.60089 50.3009 9.53081 50.3577 9.44827 50.3876C9.36572 50.4175 9.27557 50.4187 9.19229 50.3909C9.10901 50.3631 9.03752 50.3081 8.98941 50.2347C8.94129 50.1612 8.91936 50.0737 8.92715 49.9862L10.4171 38.6562L5.67715 39.6562C5.55066 39.6736 5.42186 39.662 5.30056 39.6221C5.17927 39.5823 5.06873 39.5153 4.9772 39.4262Z" fill="#131836"/>
</svg>
